<svg width="36" height="36" viewBox="0 0 36 36" fill="none" xmlns="http://www.w3.org/2000/svg">
<path d="M17.9986 11.0655C16.159 11.0655 14.3948 11.7963 13.0941 13.097C11.7933 14.3978 11.0626 16.162 11.0626 18.0015C11.0626 19.841 11.7933 21.6052 13.0941 22.906C14.3948 24.2068 16.159 24.9375 17.9986 24.9375C19.8381 24.9375 21.6023 24.2068 22.903 22.906C24.2038 21.6052 24.9346 19.841 24.9346 18.0015C24.9346 16.162 24.2038 14.3978 22.903 13.097C21.6023 11.7963 19.8381 11.0655 17.9986 11.0655ZM17.9986 22.506C16.8035 22.506 15.6574 22.0313 14.8123 21.1862C13.9673 20.3412 13.4926 19.1951 13.4926 18C13.4926 16.8049 13.9673 15.6588 14.8123 14.8138C15.6574 13.9687 16.8035 13.494 17.9986 13.494C19.1936 13.494 20.3397 13.9687 21.1848 14.8138C22.0298 15.6588 22.5046 16.8049 22.5046 18C22.5046 19.1951 22.0298 20.3412 21.1848 21.1862C20.3397 22.0313 19.1936 22.506 17.9986 22.506Z" fill="#00B574"/>
<path d="M25.2091 12.4275C26.1021 12.4275 26.8261 11.7036 26.8261 10.8105C26.8261 9.91746 26.1021 9.19351 25.2091 9.19351C24.316 9.19351 23.5921 9.91746 23.5921 10.8105C23.5921 11.7036 24.316 12.4275 25.2091 12.4275Z" fill="#00B574"/>
<path d="M30.7996 9.16651C30.4523 8.26978 29.9216 7.45543 29.2416 6.7756C28.5615 6.09576 27.7469 5.56541 26.8501 5.21851C25.8006 4.82454 24.6918 4.61152 23.5711 4.58851C22.1266 4.52551 21.6691 4.50751 18.0061 4.50751C14.3431 4.50751 13.8736 4.50751 12.4411 4.58851C11.3211 4.61034 10.2132 4.82341 9.16505 5.21851C8.26796 5.56501 7.4532 6.09521 6.77305 6.7751C6.09291 7.45499 5.56239 8.26954 5.21555 9.16651C4.82151 10.2159 4.60897 11.3248 4.58705 12.4455C4.52255 13.8885 4.50305 14.346 4.50305 18.0105C4.50305 21.6735 4.50305 22.14 4.58705 23.5755C4.60955 24.6975 4.82105 25.8045 5.21555 26.856C5.56337 27.7526 6.0944 28.5669 6.77471 29.2467C7.45502 29.9265 8.26965 30.4569 9.16655 30.804C10.2127 31.2138 11.3211 31.4421 12.4441 31.479C13.8886 31.542 14.3461 31.5615 18.0091 31.5615C21.6721 31.5615 22.1416 31.5615 23.5741 31.479C24.6947 31.4562 25.8034 31.2437 26.8531 30.8505C27.7497 30.5028 28.564 29.972 29.244 29.292C29.924 28.6119 30.4548 27.7976 30.8026 26.901C31.1971 25.851 31.4086 24.744 31.4311 23.622C31.4956 22.179 31.5151 21.7215 31.5151 18.057C31.5151 14.3925 31.5151 13.9275 31.4311 12.492C31.4136 11.3554 31.2 10.2304 30.7996 9.16651ZM28.9726 23.4645C28.9629 24.329 28.8051 25.1854 28.5061 25.9965C28.2808 26.5798 27.9359 27.1095 27.4937 27.5515C27.0514 27.9935 26.5215 28.3381 25.9381 28.563C25.1359 28.8607 24.2886 29.0185 23.4331 29.0295C22.0081 29.0955 21.6061 29.112 17.9521 29.112C14.2951 29.112 13.9216 29.112 12.4696 29.0295C11.6144 29.019 10.7675 28.8612 9.96605 28.563C9.38058 28.3395 8.84855 27.9955 8.40439 27.5534C7.96022 27.1113 7.6138 26.5809 7.38755 25.9965C7.09272 25.1941 6.93502 24.3478 6.92105 23.493C6.85655 22.068 6.84155 21.666 6.84155 18.012C6.84155 14.3565 6.84155 13.983 6.92105 12.5295C6.93075 11.6655 7.08853 10.8096 7.38755 9.99901C7.84505 8.81551 8.78255 7.88401 9.96605 7.43101C10.7679 7.13422 11.6146 6.97645 12.4696 6.96451C13.8961 6.90001 14.2966 6.88201 17.9521 6.88201C21.6076 6.88201 21.9826 6.88201 23.4331 6.96451C24.2887 6.9748 25.1361 7.13261 25.9381 7.43101C26.5214 7.65642 27.0513 8.00131 27.4935 8.44355C27.9358 8.8858 28.2806 9.41562 28.5061 9.99901C28.8009 10.8014 28.9586 11.6477 28.9726 12.5025C29.0371 13.929 29.0536 14.3295 29.0536 17.985C29.0536 21.639 29.0536 22.032 28.9891 23.466H28.9726V23.4645Z" fill="#00B574"/>
</svg>
